<svg width="38" height="38" viewBox="0 0 38 38" fill="none" xmlns="http://www.w3.org/2000/svg">
<g id="si:clock-duotone">
<g id="Group">
<path id="Vector" d="M19 34.8333C27.7448 34.8333 34.8333 27.7447 34.8333 19C34.8333 10.2552 27.7448 3.16663 19 3.16663C10.2553 3.16663 3.16667 10.2552 3.16667 19C3.16667 27.7447 10.2553 34.8333 19 34.8333Z" fill="#AD9B8E"/>
<path id="Vector_2" d="M19 9.49996V18.6833C19 18.7673 18.9666 18.8478 18.9073 18.9072C18.8479 18.9666 18.7673 19 18.6833 19H12.6667M34.8333 19C34.8333 27.7447 27.7448 34.8333 19 34.8333C10.2553 34.8333 3.16667 27.7447 3.16667 19C3.16667 10.2552 10.2553 3.16663 19 3.16663C27.7448 3.16663 34.8333 10.2552 34.8333 19Z" stroke="#322D29" stroke-width="1.5" stroke-miterlimit="10" stroke-linecap="round" stroke-linejoin="round"/>
</g>
</g>
</svg>
