<svg width="39" height="39" viewBox="0 0 39 39" fill="none" xmlns="http://www.w3.org/2000/svg">
<g id="si:globe-detailed-duotone">
<path id="Vector" d="M21.5 35.75C30.4749 35.75 37.75 28.4749 37.75 19.5C37.75 10.5251 30.4749 3.25 21.5 3.25C12.5251 3.25 5.25 10.5251 5.25 19.5C5.25 28.4749 12.5251 35.75 21.5 35.75Z" fill="#AD9B8E"/>
<path id="Vector_2" d="M19.3452 35.9856C19.5413 36.2427 19.8315 36.4114 20.152 36.4545C20.4724 36.4976 20.7969 36.4117 21.0539 36.2156C21.311 36.0195 21.4797 35.7293 21.5228 35.4088C21.5659 35.0884 21.48 34.764 21.2839 34.5069L19.3452 35.9856ZM21.3911 4.35337C21.4924 4.22714 21.5675 4.08201 21.6121 3.92643C21.6567 3.77086 21.6698 3.60797 21.6507 3.44726C21.6317 3.28656 21.5808 3.13126 21.5011 2.99042C21.4214 2.84958 21.3144 2.72603 21.1865 2.62697C21.0585 2.52792 20.9121 2.45534 20.7557 2.41348C20.5994 2.37162 20.4363 2.3613 20.276 2.38315C20.1156 2.40499 19.9612 2.45855 19.8218 2.5407C19.6824 2.62285 19.5607 2.73195 19.4639 2.86163L21.3911 4.35337ZM23.6564 2.86812C23.4603 2.61083 23.17 2.44197 22.8494 2.3987C22.5288 2.35543 22.2042 2.44128 21.9469 2.63738C21.6896 2.83347 21.5207 3.12374 21.4775 3.44433C21.4342 3.76493 21.52 4.08958 21.7161 4.34687L23.6564 2.86812ZM21.6089 34.5004C21.5076 34.6266 21.4325 34.7717 21.3879 34.9273C21.3433 35.0829 21.3302 35.2458 21.3493 35.4065C21.3683 35.5672 21.4192 35.7225 21.4989 35.8633C21.5786 36.0042 21.6856 36.1277 21.8135 36.2268C21.9415 36.3258 22.0879 36.3984 22.2443 36.4403C22.4006 36.4821 22.5637 36.4924 22.724 36.4706C22.8844 36.4488 23.0388 36.3952 23.1782 36.313C23.3176 36.2309 23.4393 36.1218 23.5361 35.9921L21.6089 34.5004ZM36.5312 19.5C36.5312 23.4865 34.9476 27.3098 32.1287 30.1287C29.3098 32.9476 25.4865 34.5312 21.5 34.5312V36.9688C31.1476 36.9688 38.9688 29.1476 38.9688 19.5H36.5312ZM21.5 34.5312C17.5135 34.5312 13.6902 32.9476 10.8713 30.1287C8.0524 27.3098 6.46875 23.4865 6.46875 19.5H4.03125C4.03125 29.1476 11.8524 36.9688 21.5 36.9688V34.5312ZM6.46875 19.5C6.46875 15.5135 8.0524 11.6902 10.8713 8.8713C13.6902 6.0524 17.5135 4.46875 21.5 4.46875V2.03125C11.8524 2.03125 4.03125 9.85238 4.03125 19.5H6.46875ZM21.5 4.46875C25.4865 4.46875 29.3098 6.0524 32.1287 8.8713C34.9476 11.6902 36.5312 15.5135 36.5312 19.5H38.9688C38.9688 9.85238 31.1476 2.03125 21.5 2.03125V4.46875ZM21.2839 34.5069C17.994 30.1962 16.214 24.9227 16.2188 19.5H13.7812C13.7763 25.4569 15.7315 31.25 19.3452 35.9856L21.2839 34.5069ZM16.2188 19.5C16.218 14.0181 18.0373 8.69117 21.3911 4.355L19.4639 2.86C15.7798 7.62464 13.7811 13.4772 13.7812 19.5H16.2188ZM21.7161 4.34687C25.006 8.65754 26.786 13.9311 26.7812 19.3538H29.2188C29.2188 13.1625 27.142 7.44413 23.6564 2.86812L21.7161 4.34687ZM26.7812 19.3538C26.782 24.8356 24.9627 30.1626 21.6089 34.4987L23.5361 35.9921C27.2202 31.2275 29.2189 25.3766 29.2188 19.3538H26.7812ZM21.5 27.2188C25.7087 27.2188 29.495 28.9445 32.2331 31.7297L33.9719 30.0203C32.3468 28.3602 30.4065 27.0416 28.2647 26.142C26.123 25.2423 23.823 24.7797 21.5 24.7812V27.2188ZM32.2315 7.2735C30.835 8.70427 29.1658 9.84041 27.3225 10.6147C25.4792 11.389 23.4993 11.7856 21.5 11.7812V14.2188C26.3913 14.2188 30.8113 12.2086 33.9735 8.9765L32.2315 7.2735ZM21.5 11.7812C19.5006 11.7827 17.5211 11.3843 15.6779 10.6097C13.8347 9.83498 12.1649 8.69959 10.7669 7.27025L9.02812 8.97975C10.6532 10.6398 12.5935 11.9584 14.7353 12.858C16.877 13.7577 19.177 14.2203 21.5 14.2188V11.7812ZM10.7685 31.7281C12.1648 30.2971 13.834 29.1606 15.6773 28.3861C17.5206 27.6115 19.5006 27.2146 21.5 27.2188V24.7812C16.6088 24.7812 12.1887 26.7914 9.0265 30.0235L10.7685 31.7281ZM5.25 20.7188H37.75V18.2812H5.25V20.7188Z" fill="#322D29"/>
</g>
</svg>
