<svg width="41" height="41" viewBox="0 0 41 41" fill="none" xmlns="http://www.w3.org/2000/svg">
<g id="si:heart-duotone">
<g id="Group">
<path id="Vector" d="M28.5223 5.125C25.0305 5.125 22.0153 7.16987 20.5 10.1526C18.9847 7.16987 15.9695 5.125 12.4777 5.125C7.47224 5.125 3.41666 9.32238 3.41666 14.4884C3.41666 19.6544 6.5207 24.3899 10.5319 28.2798C14.543 32.1696 20.5 35.875 20.5 35.875C20.5 35.875 26.2639 32.2311 30.4681 28.2798C34.9525 24.067 37.5833 19.6698 37.5833 14.4884C37.5833 9.307 33.5277 5.125 28.5223 5.125Z" fill="#AD9B8E"/>
<path id="Vector_2" d="M28.5223 5.125C25.0305 5.125 22.0153 7.16987 20.5 10.1526C18.9847 7.16987 15.9695 5.125 12.4777 5.125C7.47224 5.125 3.41666 9.32238 3.41666 14.4884C3.41666 19.6544 6.5207 24.3899 10.5319 28.2798C14.543 32.1696 20.5 35.875 20.5 35.875C20.5 35.875 26.2639 32.2311 30.4681 28.2798C34.9525 24.067 37.5833 19.6698 37.5833 14.4884C37.5833 9.307 33.5277 5.125 28.5223 5.125Z" stroke="#322D29" stroke-width="1.5" stroke-linecap="round" stroke-linejoin="round"/>
</g>
</g>
</svg>
