<svg width="44" height="44" viewBox="0 0 44 44" fill="none" xmlns="http://www.w3.org/2000/svg">
<g id="si:star-alt-duotone">
<g id="Group">
<path id="Vector" d="M39.8713 19.3893L30.1473 27.2598L33.6196 38.6027C33.8524 39.0665 33.6196 39.7613 33.1576 39.9923C32.9248 40.2233 32.6938 40.2233 32.4609 40.2233C32.2318 40.2233 31.9989 40.2233 31.7679 39.9923L22.2768 33.0477L12.5546 39.9923C12.341 40.1072 12.1023 40.1674 11.8598 40.1674C11.6173 40.1674 11.3785 40.1072 11.1649 39.9923C10.7029 39.7613 10.4701 39.0665 10.7029 38.6027L13.7114 27.0288L4.22028 19.3893C3.75828 19.1583 3.52545 18.4635 3.75828 18.0015C3.98928 17.5377 4.45128 17.0738 4.91328 17.0738H17.1838L20.8871 6.42583C21.1199 5.96383 21.5838 5.5 22.0458 5.5C22.5078 5.5 22.9716 5.96383 23.2026 6.42583L27.1388 17.0738H39.1764C39.6384 17.0738 40.1023 17.5377 40.3333 18.0015C40.3333 18.4635 40.1041 18.9273 39.8713 19.3893Z" fill="#AD9B8E"/>
<path id="Vector_2" d="M39.8713 19.3893L30.1473 27.2598L33.6196 38.6027C33.8524 39.0665 33.6196 39.7613 33.1576 39.9923C32.9248 40.2233 32.6938 40.2233 32.4609 40.2233C32.2318 40.2233 31.9989 40.2233 31.7679 39.9923L22.2768 33.0477L12.5546 39.9923C12.341 40.1072 12.1023 40.1674 11.8598 40.1674C11.6173 40.1674 11.3785 40.1072 11.1649 39.9923C10.7029 39.7613 10.4701 39.0665 10.7029 38.6027L13.7114 27.0288L4.22028 19.3893C3.75828 19.1583 3.52545 18.4635 3.75828 18.0015C3.98928 17.5377 4.45128 17.0738 4.91328 17.0738H17.1838L20.8871 6.42583C21.1199 5.96383 21.5838 5.5 22.0458 5.5C22.5078 5.5 22.9716 5.96383 23.2026 6.42583L27.1388 17.0738H39.1764C39.6384 17.0738 40.1023 17.5377 40.3333 18.0015C40.3333 18.4635 40.1041 18.9273 39.8713 19.3893Z" stroke="#322D29" stroke-width="1.5" stroke-miterlimit="10" stroke-linejoin="round"/>
</g>
</g>
</svg>
